<?xml version="1.0" standalone="no"?><!DOCTYPE svg PUBLIC "-//W3C//DTD SVG 1.1//EN" "http://www.w3.org/Graphics/SVG/1.1/DTD/svg11.dtd"><svg t="1489562174307" class="icon" style="" viewBox="0 0 1024 1024" version="1.1" xmlns="http://www.w3.org/2000/svg" p-id="1714" xmlns:xlink="http://www.w3.org/1999/xlink" width="200" height="200"><defs><style type="text/css"></style></defs><path d="M806.711252 623.88523c-8.535755-23.105231-20.755567-43.076074-36.659437-59.913555-15.903869-16.820084-34.925883-30.623461-57.065019-41.392736-22.139136-10.769274-47.079178-18.187221-74.802729-22.222117l0-2.700505c25.939854-8.985652 47.962328-20.221554 66.083795-33.724079 18.105093-13.486152 32.875091-28.773324 44.278271-45.860491s19.688214-35.741016 24.839754-55.978942c5.135166-20.237927 7.719123-41.37534 7.719123-63.414285 0-27.42256-4.31751-52.828182-12.93718-76.200496-8.618647-23.372314-20.888603-44.292785-36.793495-62.730717-15.921266-18.437931-35.259495-34.274618-58.032084-47.543829-22.772589-13.269211-48.096387-23.722284-75.9366-31.373545-10.602921-2.700505-21.889438-5.051039-33.825783-7.085372-11.936344-2.016937-24.873524-3.701299-38.79312-5.051039-13.936992-1.350764-29.191035-2.366907-45.762127-3.034103-16.571093-0.667196-35.026171-1.017166-55.365236-1.017166L202.168765 64.642253l0 901.532761L431.846178 966.175013c45.146071 0 83.856299-1.783623 116.164455-5.384637 32.308156-3.584642 61.732514-9.868765 88.289448-18.854417 34.50938-11.669784 63.383176-26.688849 86.622412-45.093011 23.239236-18.404162 42.0443-38.47529 56.431566-60.247152 14.370892-21.771863 24.656574-44.209898 30.85807-67.315128 6.201496-23.105231 9.302244-45.209668 9.302244-66.314335C819.515396 673.362085 815.247007 646.99046 806.711252 623.88523zM251.27008 119.863948l183.192801 1.023306c30.407797 0 56.798948-1.029446 79.171407 0.98749 22.372459 2.033309 54.340863 4.494361 71.345856 9.428743 34.442862 10.335393 65.36131 28.339442 85.046454 46.170552 24.8111 22.472827 55.676334 76.990488 54.856631 110.237707-1.05098 42.651402-11.967045 83.241866-34.413185 106.798375-23.401948 24.559349-65.80135 48.249911-103.162804 60.764945-13.532769 4.372587-39.194272 7.122211-54.557813 9.102309-15.670546 2.033309-33.202563 4.057409-54.674475 4.057409l-226.804872 0L251.27008 119.863948zM757.62938 741.508137c-4.049393 15.274892-9.705443 30.756491-18.995407 44.36237-9.307361 13.605879-27.721505 41.370223-42.979641 52.595892-15.258136 11.225669-47.158999 35.757388-69.095511 42.915415-20.036153 6.696516-48.446372 16.714683-77.062284 19.805068-28.614889 3.107781-60.63446 4.653997-94.010993 4.653997L251.27008 905.84088 251.27008 533.886473l246.734597 0c27.177083 0 49.930228 0.728594 68.297299 2.148943 18.366047 1.438769 34.690513 3.818979 49.007167 7.158027 23.836872 5.257747 47.842596 11.641131 63.828333 21.196765 15.96834 9.555633 39.079657 23.726378 48.849572 36.373419 9.768891 12.646018 17.71008 25.375947 24.171507 40.918945 6.361138 15.301498 9.51817 34.095539 9.51817 52.247968C761.675702 709.685361 761.679796 726.233246 757.62938 741.508137z" p-id="1715"></path></svg>