<?xml version="1.0" standalone="no"?><!DOCTYPE svg PUBLIC "-//W3C//DTD SVG 1.1//EN" "http://www.w3.org/Graphics/SVG/1.1/DTD/svg11.dtd"><svg t="1489562158044" class="icon" style="" viewBox="0 0 1024 1024" version="1.1" xmlns="http://www.w3.org/2000/svg" p-id="1380" xmlns:xlink="http://www.w3.org/1999/xlink" width="200" height="200"><defs><style type="text/css"></style></defs><path d="M995.904 28.096C977.728 9.984 953.6 0 928 0L640 0C597.248 0 557.056 16.64 526.848 46.848 521.28 52.48 516.608 58.688 512 64.96 507.392 58.688 502.72 52.48 497.152 46.848 466.944 16.64 426.752 0 384 0L96 0C70.336 0 46.272 9.984 28.096 28.096S0 70.4 0 96L0 832c0 25.6 9.984 49.728 28.096 67.904S70.336 928 96 928L384 928c25.6 0 49.728 9.984 67.904 28.096S480 998.4 480 1024l64 0c0-25.6 9.984-49.728 28.096-67.904S614.4 928 640 928l288 0c25.6 0 49.728-9.984 67.904-28.096S1024 857.6 1024 832L1024 96C1024 70.4 1014.016 46.272 995.904 28.096zM480 896c-27.584-20.736-60.928-32-96-32L96 864c-8.576 0-16.576-3.328-22.656-9.344S64 840.512 64 832L64 96c0-8.512 3.328-16.576 9.344-22.656S87.424 64 96 64L384 64c25.6 0 49.728 9.984 67.904 28.096S480 134.336 480 160L480 896zM960 832c0 8.512-3.328 16.576-9.344 22.656S936.576 864 928 864L640 864c-35.136 0-68.416 11.264-96 32L544 160c0-25.664 9.984-49.728 28.096-67.904S614.4 64 640 64l288 0c8.576 0 16.576 3.328 22.656 9.344S960 87.488 960 96L960 832zM128 256l289.344 0L417.344 192 128 192 128 256zM128 416l289.344 0 0-64L128 352 128 416zM128 576l289.344 0L417.344 512 128 512 128 576zM128 736l289.344 0 0-64L128 672 128 736zM608.32 256l289.344 0L897.664 192 608.32 192 608.32 256zM608.32 416l289.344 0 0-64L608.32 352 608.32 416zM608.32 576l289.344 0L897.664 512 608.32 512 608.32 576zM608.32 736l289.344 0 0-64L608.32 672 608.32 736z" p-id="1381"></path></svg>