<?xml version="1.0" standalone="no"?><!DOCTYPE svg PUBLIC "-//W3C//DTD SVG 1.1//EN" "http://www.w3.org/Graphics/SVG/1.1/DTD/svg11.dtd"><svg t="1489562113460" class="icon" style="" viewBox="0 0 1024 1024" version="1.1" xmlns="http://www.w3.org/2000/svg" p-id="718" xmlns:xlink="http://www.w3.org/1999/xlink" width="200" height="200"><defs><style type="text/css"></style></defs><path d="M878.596887 77.20129c14.6957-0.387833 29.984918-0.87595 45.038776-1.355881 32.651654-1.040702 66.413596-2.116197 92.171236-2.116197v-51.16531c-26.572192 0-60.749596 1.088798-93.801363 2.142803-32.656771 1.040702-66.424852 2.117221-92.191702 2.11722-26.356274 0-59.642378-1.075495-91.832521-2.116197-32.602535-1.054005-66.316381-2.143826-93.508697-2.143826v51.16531c26.366508 0 59.659775 1.076518 91.856057 2.116197 31.05939 1.003863 63.126736 2.040473 89.597621 2.13564-2.859118 14.875802-5.151323 34.464953-6.904247 60.550051-2.660596 39.578414-2.947122 79.776951-2.947122 95.250364l0.257873 244.249887H215.587592V274.529517c0-2.53166 0.032746-6.201236 0.073678-10.79588 0.213871-24.12649 0.660032-74.327846-2.129501-120.318297-1.709945-28.202319-4.288676-49.380664-7.626701-65.429175 25.434276-0.061398 53.152571-1.12052 79.984683-2.145873 27.148313-1.037632 55.220672-2.111081 80.284511-2.11108v-51.16531c-26.041096 0-54.610782 1.091868-82.239026 2.148943-27.15343 1.036609-55.232952 2.110057-80.307024 2.110057-27.599591 0-62.563918-1.076518-96.377024-2.11722-34.199916-1.052982-69.564355-2.14178-97.951893-2.14178v51.16531c27.599591 0 62.564941 1.076518 96.378048 2.11722 15.830547 0.488117 31.912827 0.982374 47.435359 1.3743 2.939959 9.449209 7.43432 31.025621 9.841135 78.129429 2.13257 41.723264 1.749854 84.792175 1.545193 107.930151-0.042979 4.789073-0.075725 8.612145-0.075725 11.250228v494.750128l0.604774 34.926464c0.011256 4.264117 0.314155 11.55108 0.729617 21.565154 0.86367 20.784372 2.168386 52.192709 1.855254 81.148182-0.257873 23.916712-1.564635 38.298258-2.839674 46.762023-13.396101 0.408299-26.706245 0.956791-39.787169 1.495051-25.172309 1.036609-51.202149 2.109034-76.53921 2.109034v51.16531c26.391067 0 52.955072-1.093914 78.644151-2.152013 25.172309-1.036609 51.201126-2.109034 76.537164-2.109034 27.436886 0 55.768141 1.069355 83.167165 2.103917 28.096918 1.060145 57.150628 2.156106 86.004792 2.156106v-51.16531c-27.889187 0-56.452733-1.078565-84.07586-2.12029-23.678282-0.893346-48.040133-1.812275-72.248488-2.069125 1.131777-10.17064 1.813299-22.186302 2.143827-36.415375 0.760317-32.787754-0.74599-69.042469-1.742691-93.031836-0.36839-8.862855-0.685615-16.517185-0.685615-19.681248l-0.604774-34.908044v-239.862973h600.797396l0.293689 278.409894c0 4.720511 0.086981 47.349401 3.109827 89.788979 1.685385 23.663956 3.832282 41.721217 6.469342 55.635111-26.669406 0.088004-60.693314 1.128707-93.641727 2.13564-34.054607 1.041726-69.269643 2.118244-95.658663 2.118244v51.16531c27.171849 0 62.783928-1.088798 97.223298-2.142803 34.047444-1.041726 69.255317-2.117221 95.633081-2.117221 26.702152 0 56.505945 1.079588 85.328387 2.122337 29.027104 1.050935 59.043744 2.137687 86.206384 2.137687v-51.16531c-26.237571 0-55.782467-1.069355-84.356246-2.104941-12.624529-0.456395-25.432229-0.919952-38.135552-1.300622-2.376117-8.608052-6.062066-27.786857-8.591679-68.509327-2.354628-37.900192-2.422166-73.795726-2.422166-77.791737l-0.604774-573.82509c0-13.252839 0.225127-47.915289 2.307556-83.445504 2.569522-43.806715 6.51846-64.123436 9.052166-73.106018z" p-id="719"></path></svg>