<?xml version="1.0" standalone="no"?><!DOCTYPE svg PUBLIC "-//W3C//DTD SVG 1.1//EN" "http://www.w3.org/Graphics/SVG/1.1/DTD/svg11.dtd"><svg t="1489562132328" class="icon" style="" viewBox="0 0 1024 1024" version="1.1" xmlns="http://www.w3.org/2000/svg" p-id="941" xmlns:xlink="http://www.w3.org/1999/xlink" width="200" height="200"><defs><style type="text/css"></style></defs><path d="M260.565333 982.328889c-40.874667 0-82.133333-12.017778-118.186667-37.034667l-7.594667-5.276444c-94.065778-65.322667-117.461333-195.015111-52.138667-289.080889l198.129778-264.362667c31.047111-44.743111 78.535111-75.264 133.134222-85.105778 54.599111-9.870222 109.752889 2.161778 155.320889 33.806222l7.594667 5.262222c38.684444 26.851556 67.342222 66.503111 80.711111 111.644444 4.451556 15.061333-4.138667 30.890667-19.214222 35.342222-15.047111 4.423111-30.876444-4.124444-35.342222-19.214222-9.827556-33.237333-30.094222-61.269333-58.581333-81.038222l-7.594667-5.262222c-33.109333-22.997333-73.187556-31.729778-112.796444-24.561778-39.637333 7.153778-74.126222 29.312-97.109333 62.407111L128.782222 684.202667c-46.833778 67.470222-29.852444 161.635556 38.456889 209.080889l7.594667 5.276444c68.280889 47.416889 162.460444 30.464 209.905778-37.831111l60.529778-87.125333c8.974222-12.871111 26.666667-16.056889 39.594667-7.125333 12.885333 8.974222 16.085333 26.695111 7.125333 39.594667l-60.529778 87.111111C391.168 951.210667 326.371556 982.328889 260.565333 982.328889z" p-id="942"></path><path d="M573.112889 725.944889c-40.917333 0-82.261333-12.003556-118.371556-37.063111l-7.651556-5.333333c-38.656-26.851556-67.285333-66.474667-80.625778-111.573333-4.451556-15.075556 4.152889-30.890667 19.214222-35.342222 15.118222-4.451556 30.904889 4.138667 35.342222 19.214222 9.813333 33.208889 30.065778 61.226667 58.552889 81.009778l7.651556 5.333333c68.252444 47.388444 162.432 30.407111 209.877333-37.888l198.115556-264.391111c46.848-67.470222 29.866667-161.635556-38.442667-209.080889l-7.537778-5.191111c-33.166222-23.054222-73.201778-31.744-112.867556-24.618667-39.637333 7.153778-74.126222 29.312-97.109333 62.407111l-60.515556 87.111111c-8.96 12.913778-26.680889 16.099556-39.580444 7.139556s-16.099556-26.680889-7.139556-39.580444l60.515556-87.111111c31.644444-45.582222 79.132444-76.103111 133.745778-85.944889 54.584889-9.827556 109.767111 2.176 155.335111 33.834667l7.523556 5.191111c94.151111 65.393778 117.532444 195.086222 52.195556 289.137778l-198.115556 264.391111C703.331556 695.011556 638.776889 725.944889 573.112889 725.944889z" p-id="943"></path><path d="M750.364444 470.840889c-2.972444 0-5.959111-0.924444-8.519111-2.844444-6.286222-4.707556-7.566222-13.624889-2.844444-19.896889l7.793778-10.382222c4.707556-6.286222 13.639111-7.537778 19.896889-2.844444 6.286222 4.707556 7.566222 13.624889 2.844444 19.896889l-7.793778 10.382222C758.954667 468.892444 754.688 470.840889 750.364444 470.840889z" p-id="944"></path><path d="M782.890667 427.463111c-2.972444 0-5.959111-0.924444-8.519111-2.844444-6.286222-4.707556-7.566222-13.624889-2.844444-19.896889l62.947556-83.968c15.089778-21.731556 20.920889-48.554667 16.128-75.093333-4.792889-26.552889-19.626667-49.649778-41.784889-65.024l-4.878222-3.370667c-6.456889-4.48-8.064-13.340444-3.598222-19.797333 4.451556-6.456889 13.312-8.078222 19.797333-3.598222l4.892444 3.384889c28.401778 19.726222 47.416889 49.322667 53.560889 83.342222s-1.336889 68.408889-21.048889 96.796444l-63.246222 84.394667C791.480889 425.500444 787.228444 427.463111 782.890667 427.463111z" p-id="945"></path></svg>