<?xml version="1.0" standalone="no"?><!DOCTYPE svg PUBLIC "-//W3C//DTD SVG 1.1//EN" "http://www.w3.org/Graphics/SVG/1.1/DTD/svg11.dtd"><svg t="1489562163721" class="icon" style="" viewBox="0 0 1024 1024" version="1.1" xmlns="http://www.w3.org/2000/svg" p-id="1489" xmlns:xlink="http://www.w3.org/1999/xlink" width="200" height="200"><defs><style type="text/css"></style></defs><path d="M35.116287 123.859959l0 776.280082 960.065875 0 0-776.280082L35.116287 123.859959zM954.352245 859.310124l-878.30371 0 0-694.620247 878.30371 0L954.352245 859.310124z" p-id="1490"></path><path d="M330.544787 449.679629 653.0909 801.696961 683.278433 774.067694 613.693612 698.139397 730.14688 572.170404 868.496855 710.520379 897.355113 681.561837 729.021244 513.227967 585.962014 667.951865 331.772754 390.532531 133.660674 589.464279 162.620239 618.219183Z" p-id="1491"></path><path d="M576.342935 471.272413c45.12985 0 81.864496-36.736693 81.864496-81.864496 0-44.923142-36.734646-81.557504-81.864496-81.557504-45.127803 0-81.864496 36.532031-81.864496 81.557504C494.376109 434.534697 531.113825 471.272413 576.342935 471.272413zM576.342935 348.782661c22.617114 0 41.036625 18.21485 41.036625 40.625256 0 22.615067-18.419512 41.034579-41.036625 41.034579-22.615067 0-41.034579-18.419512-41.034579-41.034579C535.308357 366.996488 553.727869 348.782661 576.342935 348.782661z" p-id="1492"></path></svg>