<?xml version="1.0" standalone="no"?><!DOCTYPE svg PUBLIC "-//W3C//DTD SVG 1.1//EN" "http://www.w3.org/Graphics/SVG/1.1/DTD/svg11.dtd"><svg t="1489562094345" class="icon" style="" viewBox="0 0 1024 1024" version="1.1" xmlns="http://www.w3.org/2000/svg" p-id="604" xmlns:xlink="http://www.w3.org/1999/xlink" width="200" height="200"><defs><style type="text/css"></style></defs><path d="M128 833.088c0 34.752 29.248 62.912 65.344 62.912h212.48c36.096 0 65.28-28.16 65.28-62.912V581.376c0-34.752-29.184-62.912-65.28-62.912H300.8a32.064 32.064 0 0 1-32.64-31.488 30.08 30.08 0 0 1 1.472-9.6c23.808-76.16 84.096-137.216 161.408-164.224l0.32-0.32c23.36-9.6 39.68-32 39.68-57.92 0-34.752-29.184-62.912-65.28-62.912-8.832 0-17.216 1.728-24.896 4.736l-2.944 1.088C231.744 252.736 128 389.568 128 549.888v283.2z m424.832 0c0 34.752 29.248 62.912 65.408 62.912h212.416c36.096 0 65.344-28.16 65.344-62.912V581.376c0-34.752-29.248-62.912-65.344-62.912h-104.96a32.064 32.064 0 0 1-32.64-31.488c0-5.824 1.472-9.6 1.472-9.6 23.872-76.16 84.16-137.216 161.408-164.224l0.32-0.32c23.424-9.6 39.744-32 39.744-57.92C896 220.16 866.752 192 830.656 192c-8.832 0-17.152 1.728-24.832 4.736l-2.944 1.088c-146.304 54.912-250.048 191.744-250.048 352.064v283.2z" p-id="605"></path></svg>