<?xml version="1.0" standalone="no"?><!DOCTYPE svg PUBLIC "-//W3C//DTD SVG 1.1//EN" "http://www.w3.org/Graphics/SVG/1.1/DTD/svg11.dtd"><svg t="1489562169169" class="icon" style="" viewBox="0 0 1024 1024" version="1.1" xmlns="http://www.w3.org/2000/svg" p-id="1600" xmlns:xlink="http://www.w3.org/1999/xlink" width="200" height="200"><defs><style type="text/css"></style></defs><path d="M931.712 994.93888 108.5184 994.93888c-31.63648 0-57.34912-25.7536-57.34912-57.344L51.16928 113.4848c0-31.63648 25.70752-57.3696 57.34912-57.3696L779.1104 56.1152 989.056 258.56l0 679.03488C989.056 969.18528 963.34848 994.93888 931.712 994.93888zM119.552 105.39008c-10.53184 0-19.12832 8.576-19.12832 19.12832l0 801.88928c0 10.55744 8.6016 19.11296 19.12832 19.11296l801.11616 0c10.55744 0 19.10272-8.56064 19.10272-19.11296L939.77088 274.39104l-179.05152-169.00096L119.552 105.39008z" p-id="1601"></path><path d="M742.14912 500.48 199.5264 500.48 199.5264 56.1152l542.62272 0L742.14912 500.48zM248.80128 451.17952l444.07808 0L692.87936 105.39008 248.80128 105.39008 248.80128 451.17952z" p-id="1602"></path><path d="M642.48832 376.89344l-48.50176 0L593.98656 130.74944l48.50176 0L642.48832 376.89344z" p-id="1603"></path><path d="M747.40736 697.93792 217.1136 697.93792c-10.57792 0-19.13344-13.20448-19.13344-23.7568 0-10.57792 8.55552-25.30304 19.13344-25.30304l530.28864 0c10.5728 0 19.10272 14.72512 19.10272 25.30304C766.51008 684.73344 757.98016 697.93792 747.40736 697.93792z" p-id="1604"></path><path d="M747.40736 796.61056 217.1136 796.61056c-10.57792 0-19.13344-13.17376-19.13344-23.7312s8.55552-25.28256 19.13344-25.28256l530.28864 0c10.5728 0 19.10272 14.72512 19.10272 25.28256S757.98016 796.61056 747.40736 796.61056z" p-id="1605"></path><path d="M747.40736 895.32928 217.1136 895.32928c-10.57792 0-19.13344-13.19936-19.13344-23.7568 0-10.5728 8.55552-25.30304 19.13344-25.30304l530.28864 0c10.5728 0 19.10272 14.73024 19.10272 25.30304C766.51008 882.12992 757.98016 895.32928 747.40736 895.32928z" p-id="1606"></path></svg>