<?xml version="1.0" standalone="no"?><!DOCTYPE svg PUBLIC "-//W3C//DTD SVG 1.1//EN" "http://www.w3.org/Graphics/SVG/1.1/DTD/svg11.dtd"><svg t="1489562151927" class="icon" style="" viewBox="0 0 1309 1024" version="1.1" xmlns="http://www.w3.org/2000/svg" p-id="1271" xmlns:xlink="http://www.w3.org/1999/xlink" width="255.6640625" height="200"><defs><style type="text/css"></style></defs><path d="M568.888889 682.666667C575.715556 682.666667 581.660444 679.964444 586.552889 675.982222L813.397333 534.272C820.224 529.066667 824.888889 521.244444 824.888889 512 824.888889 499.655111 816.952889 489.415111 805.944889 485.461333L584.931556 346.88C580.266667 343.637333 574.976 341.304889 568.888889 341.304889 553.159111 341.304889 540.444444 354.048 540.444444 369.749333L540.444444 654.193778C540.444444 669.923556 553.159111 682.666667 568.888889 682.666667L568.888889 682.666667ZM1194.666667 0 113.777778 0C50.944 0 0 50.944 0 113.777778L0 910.222222C0 973.056 50.944 1024 113.777778 1024L1194.666667 1024C1257.500444 1024 1308.444444 973.056 1308.444444 910.222222L1308.444444 113.777778C1308.444444 50.944 1257.500444 0 1194.666667 0L1194.666667 0ZM682.666667 56.888889 938.666667 56.888889 938.666667 170.666667 682.666667 170.666667 682.666667 56.888889 682.666667 56.888889ZM369.777778 56.888889 625.777778 56.888889 625.777778 170.666667 369.777778 170.666667 369.777778 56.888889 369.777778 56.888889ZM56.888889 113.777778C56.888889 82.375111 82.375111 56.888889 113.777778 56.888889L312.888889 56.888889 312.888889 170.666667 56.888889 170.666667 56.888889 113.777778 56.888889 113.777778ZM312.888889 967.111111 113.777778 967.111111C82.375111 967.111111 56.888889 941.653333 56.888889 910.222222L56.888889 853.333333 312.888889 853.333333 312.888889 967.111111 312.888889 967.111111ZM625.777778 967.111111 369.777778 967.111111 369.777778 853.333333 625.777778 853.333333 625.777778 967.111111 625.777778 967.111111ZM938.666667 967.111111 682.666667 967.111111 682.666667 853.333333 938.666667 853.333333 938.666667 967.111111 938.666667 967.111111ZM1251.555556 910.222222C1251.555556 941.653333 1226.097778 967.111111 1194.666667 967.111111L995.555556 967.111111 995.555556 853.333333 1251.555556 853.333333 1251.555556 910.222222 1251.555556 910.222222ZM1251.555556 796.444444 56.888889 796.444444 56.888889 227.555556 1251.555556 227.555556 1251.555556 796.444444 1251.555556 796.444444ZM1251.555556 170.666667 995.555556 170.666667 995.555556 56.888889 1194.666667 56.888889C1226.097778 56.888889 1251.555556 82.375111 1251.555556 113.777778L1251.555556 170.666667 1251.555556 170.666667Z" p-id="1272"></path></svg>